{"accessors" : [{"bufferView" : 0, "byteOffset" : 0, "componentType" : 5123, "count" : 44937, "type" : "SCALAR", "max" : [44936], "min" : [0]}, {"bufferView" : 1, "byteOffset" : 0, "componentType" : 5126, "count" : 44937, "type" : "VEC3", "max" : [7.31804084777832, 24.69900131225586, 5.983739376068115], "min" : [-7.436141014099121, 0, -8.342395782470703]}, {"bufferView" : 1, "byteOffset" : 12, "componentType" : 5126, "count" : 44937, "type" : "VEC3", "max" : [0.9994474053382874, 0.9995125532150269, 0.9997808933258057], "min" : [-0.9999586939811707, -0.9981881976127625, -0.9990087151527405]}, {"bufferView" : 1, "byteOffset" : 24, "componentType" : 5126, "count" : 44937, "type" : "VEC3", "max" : [0.9991760849952698, 0.9998767971992493, 0.9987392425537109], "min" : [-0.9999591112136841, -0.9982647895812988, -0.9989048838615417]}, {"bufferView" : 1, "byteOffset" : 36, "componentType" : 5126, "count" : 44937, "type" : "VEC3", "max" : [0.9994405508041382, 0.9999508857727051, 1.0000039339065552], "min" : [-0.9985904693603516, -0.9999006986618042, -0.9992959499359131]}, {"bufferView" : 1, "byteOffset" : 48, "componentType" : 5126, "count" : 44937, "type" : "VEC2", "max" : [0.9959712624549866, -0.0038806796073913574], "min" : [0.004521272610872984, -0.9961637258529663]}], "asset" : {"generator" : "Aspose.3D 20.7.1", "version" : "2.0"}, "buffers" : [{"uri" : "buffer.bin", "byteLength" : 3796644}], "bufferViews" : [{"buffer" : 0, "byteOffset" : 0, "byteLength" : 89876, "target" : 34963}, {"buffer" : 0, "byteOffset" : 89880, "byteLength" : 2516472, "byteStride" : 56, "target" : 34962}, {"buffer" : 0, "byteOffset" : 2606356, "byteLength" : 1190284}], "images" : [{"mimeType" : "image/png", "bufferView" : 2}], "materials" : [{"pbrMetallicRoughness" : {"baseColorFactor" : [1, 1, 1, 1], "baseColorTexture" : {"index" : 0, "texCoord" : 0}, "metallicFactor" : 0, "roughnessFactor" : 0}, "emissiveFactor" : [0, 0, 0], "alphaMode" : "OPAQUE", "doubleSided" : false}], "meshes" : [{"primitives" : [{"attributes" : {"POSITION" : 1, "NORMAL" : 2, "BINORMAL" : 3, "TANGENT" : 4, "TEXCOORD_0" : 5}, "indices" : 0, "material" : 0, "mode" : 4}]}], "nodes" : [{"matrix" : [0.021485840901732445, 0, 0, 0, 0, 0.021485840901732445, 0, 0, 0, 0, 0.021485840901732445, 0, -0.0011294832220301032, -0.14403748512268066, 0.07684764266014099, 1], "mesh" : 0, "name" : "node_id30"}, {"children" : [0], "name" : "root"}], "samplers" : [{"magFilter" : 9729, "minFilter" : 9729, "wrapS" : 10497, "wrapT" : 10497}], "scene" : 0, "scenes" : [{"nodes" : [1]}], "textures" : [{"sampler" : 0, "source" : 0}]}